# xmcd
#
# Track frame offsets:
#	150
#	17810
#	34994
#	53757
#	72700
#	89130
#	103939
#	116946
#	137043
#	148112
#
# Disc length: 2231 seconds
#
# Revision: 1
# Processed by: cddbd v1.5.2PL0 Copyright (c) Steve Scherf et al.
# Submitted via: audiograbber 1.83.01
#
DISCID=a208b50a
DTITLE=Colin Amey - Colin Amey
DYEAR=1999
DGENRE=Country
TTITLE0=Just Another Mile Away
TTITLE1=Could've Fooled Me
TTITLE2=I Wish She Was Mine
TTITLE3=My Heart Belongs to You
TTITLE4=You're Crazy Too
TTITLE5=She Only Came in Here to Dance
TTITLE6=A Cure for the Heartache
TTITLE7=We Could Love Again
TTITLE8=Honkytonk Night
TTITLE9=Let the Band Play
EXTD=
EXTT0=
EXTT1=
EXTT2=
EXTT3=
EXTT4=
EXTT5=
EXTT6=
EXTT7=
EXTT8=
EXTT9=
PLAYORDER=
